<svg width="231" height="87" viewBox="0 0 231 87" fill="none" xmlns="http://www.w3.org/2000/svg">
<g clip-path="url(#clip0_122_29)">
<path d="M119.245 28.9851L130.187 28.2729C130.437 30.0742 130.894 31.4147 131.643 32.3781C132.85 33.8862 134.514 34.6402 136.719 34.6402C138.342 34.6402 139.632 34.2632 140.505 33.4673C141.338 32.8389 141.837 31.8336 141.837 30.7863C141.837 29.781 141.379 28.8175 140.589 28.1891C139.757 27.4351 137.801 26.6811 134.722 26.0109C129.688 24.8798 126.068 23.3718 123.946 21.4449C121.824 19.6436 120.618 17.0045 120.701 14.1979C120.701 12.271 121.283 10.344 122.365 8.75223C123.613 6.95096 125.319 5.5267 127.358 4.7308C129.563 3.76733 132.642 3.26465 136.511 3.26465C141.254 3.26465 144.874 4.14434 147.37 5.9456C149.867 7.70498 151.365 10.5535 151.822 14.4493L141.005 15.0776C140.713 13.402 140.131 12.1872 139.174 11.3913C138.217 10.5954 136.969 10.2184 135.346 10.2184C134.015 10.2184 133.016 10.5116 132.351 11.0562C131.726 11.5589 131.31 12.3129 131.352 13.1507C131.352 13.779 131.685 14.3655 132.184 14.7425C132.725 15.2452 134.015 15.706 136.054 16.1249C141.088 17.214 144.666 18.3031 146.871 19.4342C149.076 20.5652 150.657 21.9475 151.614 23.5813C152.613 25.2569 153.112 27.1838 153.071 29.1526C153.071 31.4985 152.405 33.8443 151.073 35.8131C149.7 37.8657 147.787 39.4575 145.54 40.421C143.168 41.4683 140.173 42.0128 136.594 42.0128C130.27 42.0128 125.902 40.798 123.447 38.3265C120.992 35.855 119.536 32.7551 119.245 28.9851ZM3.1212 41.3845V3.93489H22.3017C25.8383 3.93489 28.5843 4.22812 30.4566 4.85647C32.2873 5.44292 33.9099 6.65773 34.9917 8.29144C36.1983 10.0927 36.7808 12.1872 36.7391 14.3655C36.864 18.0518 34.9917 21.5705 31.788 23.4137C30.5398 24.1258 29.1668 24.6285 27.7522 24.8798C28.7923 25.1731 29.8325 25.6758 30.7478 26.2622C31.4551 26.8487 32.0376 27.5189 32.5785 28.231C33.2026 28.9432 33.7435 29.7391 34.2012 30.5769L39.7764 41.4264H26.712L20.5543 29.9066C19.7638 28.4405 19.098 27.477 18.474 27.0162C17.6418 26.4298 16.6433 26.1365 15.6447 26.1365H14.6462V41.3426H3.1212V41.3845ZM14.6462 19.099H19.5141C20.5543 19.0153 21.5528 18.8477 22.5514 18.5964C23.3003 18.4707 23.966 18.0518 24.4237 17.4234C25.547 15.9154 25.3806 13.779 24.0076 12.4804C23.2587 11.8521 21.8025 11.517 19.7221 11.517H14.6462V19.099ZM0.5 73.4721L11.4425 72.76C11.6921 74.5613 12.1498 75.9018 12.8987 76.8652C14.0637 78.3733 15.7695 79.1692 17.9747 79.1692C19.5973 79.1692 20.8871 78.7922 21.7609 77.9963C22.593 77.326 23.0923 76.3625 23.0923 75.3153C23.0923 74.3099 22.6346 73.3465 21.8441 72.7181C21.0119 71.9641 19.0564 71.2101 15.936 70.5398C10.9016 69.4088 7.28184 67.9008 5.15991 65.9739C3.03799 64.1726 1.8314 61.5335 1.91462 58.7269C1.91462 56.8 2.49711 54.873 3.57887 53.2812C4.82706 51.4799 6.53292 50.0557 8.57164 49.2598C10.7768 48.2963 13.8556 47.7936 17.725 47.7936C22.4682 47.7936 26.0879 48.6733 28.5843 50.4746C31.0807 52.2759 32.5369 55.0825 32.9946 58.9782L22.1769 59.6066C21.8857 57.931 21.3032 56.7162 20.3462 55.9203C19.4309 55.1244 18.1411 54.7474 16.5185 54.7892C15.187 54.7892 14.1885 55.0825 13.5228 55.6689C12.8571 56.1716 12.4826 56.9256 12.5242 57.7634C12.5242 58.3918 12.8571 58.9782 13.3564 59.3552C13.8973 59.8579 15.187 60.3187 17.2258 60.7376C22.2601 61.8267 25.8383 62.9159 28.0434 64.0469C30.2486 65.1779 31.8296 66.5603 32.7865 68.194C33.7851 69.8696 34.2844 71.7965 34.2844 73.7235C34.2844 76.0693 33.5771 78.3733 32.2873 80.3421C30.9143 82.3947 29.0004 83.9865 26.7536 84.95C24.3821 85.9972 21.3864 86.5418 17.8082 86.5418C11.4841 86.5418 7.11541 85.327 4.66064 82.8555C2.20586 80.3421 0.832851 77.2422 0.5 73.4721H0.5Z" fill="black"/>
<path d="M55.8364 70.5402L65.9052 73.5981C65.3643 76.1534 64.2409 78.583 62.7015 80.7194C61.2869 82.6045 59.4146 84.0706 57.2927 85.0341C55.1291 85.9976 52.3831 86.5002 49.0546 86.5002C45.0188 86.5002 41.6903 85.9138 39.1523 84.7409C36.5727 83.5679 34.3676 81.4734 32.4953 78.4993C30.623 75.5251 29.7076 71.7131 29.7076 67.0633C29.7076 60.8636 31.3303 56.0882 34.6172 52.7788C37.9041 49.4695 42.5224 47.7939 48.5137 47.7939C53.2152 47.7939 56.8766 48.7574 59.581 50.6425C62.2438 52.5694 64.2409 55.5017 65.5723 59.4393L55.4204 61.7014C55.1707 60.8217 54.7963 59.942 54.297 59.188C53.6729 58.3083 52.8824 57.6381 51.9254 57.1354C50.9685 56.6327 49.8867 56.4233 48.805 56.4233C46.1838 56.4233 44.1867 57.4705 42.8136 59.6069C41.7735 61.1568 41.2326 63.6283 41.2326 66.9795C41.2326 71.1266 41.8567 73.9751 43.1049 75.5251C44.3531 77.075 46.1006 77.829 48.3889 77.829C50.594 77.829 52.2583 77.2007 53.3817 75.9859C54.505 74.6873 55.3372 72.886 55.8364 70.5402ZM79.344 48.4223H90.8274V61.5338H103.393V48.4223H114.959V85.8719H103.393V70.7077H90.8274V85.8719H79.344V48.4223Z" fill="black"/>
<path d="M113.378 67.147C113.378 61.0311 115.084 56.2556 118.454 52.8625C121.824 49.4694 126.567 47.752 132.6 47.752C138.8 47.752 143.543 49.4275 146.913 52.7787C150.283 56.1299 151.947 60.8216 151.947 66.8538C151.947 71.2522 151.198 74.8128 149.742 77.6195C148.327 80.3842 146.122 82.6463 143.418 84.1543C140.63 85.7042 137.177 86.5001 133.058 86.5001C128.856 86.5001 125.402 85.8299 122.656 84.4894C119.827 83.0652 117.497 80.845 115.958 78.1221C114.252 75.1898 113.378 71.5454 113.378 67.147ZM124.861 67.1889C124.861 70.959 125.569 73.6818 126.942 75.3574C128.315 76.9911 130.229 77.8289 132.642 77.8289C135.097 77.8289 137.01 77.033 138.383 75.3993C139.756 73.7656 140.422 70.8752 140.422 66.6862C140.422 63.1674 139.715 60.5703 138.3 58.9785C136.886 57.3447 134.972 56.5488 132.559 56.5488C130.437 56.4651 128.398 57.3866 126.983 59.0203C125.569 60.654 124.861 63.3769 124.861 67.1889ZM163.722 67.147C163.722 61.0311 165.428 56.2556 168.798 52.8625C172.168 49.4694 176.911 47.752 182.944 47.752C189.143 47.752 193.928 49.4275 197.256 52.7787C200.585 56.1299 202.291 60.8216 202.291 66.8538C202.291 71.2522 201.542 74.8128 200.086 77.6195C198.671 80.3842 196.466 82.6463 193.762 84.1543C190.974 85.7042 187.521 86.5001 183.402 86.5001C179.199 86.5001 175.746 85.8299 173 84.4894C170.171 83.0652 167.841 80.845 166.301 78.1221C164.595 75.1898 163.722 71.5454 163.722 67.147ZM175.205 67.1889C175.205 70.959 175.912 73.6818 177.285 75.3574C178.658 76.9911 180.572 77.8289 182.986 77.8289C185.44 77.8289 187.354 77.033 188.727 75.3993C190.1 73.7656 190.766 70.8752 190.766 66.6862C190.766 63.1674 190.059 60.5703 188.644 58.9785C187.229 57.3447 185.315 56.5488 182.902 56.5488C180.78 56.4651 178.7 57.3866 177.327 59.0203C175.912 60.654 175.205 63.3769 175.205 67.1889Z" fill="black"/>
<path d="M201.084 48.4219H212.568V76.6557H230.5V85.8715H201.043V48.4219H201.084Z" fill="black"/>
<path d="M188.427 46.2609C199.988 37.4892 203.554 22.6196 196.39 13.0489C189.226 3.47817 174.047 2.83046 162.486 11.6022C150.924 20.374 147.359 35.2435 154.523 44.8142C161.686 54.3849 176.866 55.0326 188.427 46.2609Z" fill="white"/>
<path d="M125.038 24.1851L184.782 -21.1435L226.123 34.0896L166.379 79.4182L125.038 24.1851Z" fill="white"/>
<path d="M188.427 46.2609C199.988 37.4892 203.554 22.6196 196.39 13.0489C189.226 3.47817 174.047 2.83046 162.486 11.6022C150.924 20.374 147.359 35.2435 154.523 44.8142C161.686 54.3849 176.866 55.0326 188.427 46.2609Z" fill="white"/>
<path d="M141.675 27.873L183.509 -3.86632L209.475 30.8263L167.641 62.5656L141.675 27.873Z" fill="white"/>
<path d="M188.427 46.2609C199.988 37.4892 203.554 22.6196 196.39 13.0489C189.226 3.47817 174.047 2.83046 162.486 11.6022C150.924 20.374 147.359 35.2435 154.523 44.8142C161.686 54.3849 176.866 55.0326 188.427 46.2609Z" fill="white" stroke="black" stroke-width="4" stroke-miterlimit="10"/>
<path d="M141.675 27.873L183.509 -3.86632L209.475 30.8263L167.641 62.5656L141.675 27.873Z" stroke="black" stroke-width="4" stroke-miterlimit="10"/>
<path d="M188.427 46.2609C199.988 37.4892 203.554 22.6196 196.39 13.0489C189.226 3.47817 174.047 2.83046 162.486 11.6022C150.924 20.374 147.359 35.2435 154.523 44.8142C161.686 54.3849 176.866 55.0326 188.427 46.2609Z" stroke="black" stroke-width="4" stroke-miterlimit="10"/>
<path d="M141.675 27.873L183.509 -3.86632L209.475 30.8263L167.641 62.5656L141.675 27.873Z" fill="white"/>
<path d="M188.427 46.2609C199.988 37.4892 203.554 22.6196 196.39 13.0489C189.226 3.47817 174.047 2.83046 162.486 11.6022C150.924 20.374 147.359 35.2435 154.523 44.8142C161.686 54.3849 176.866 55.0326 188.427 46.2609Z" fill="white" stroke="black" stroke-width="4" stroke-miterlimit="10"/>
<path d="M141.675 27.873L183.509 -3.86632L209.475 30.8263L167.641 62.5656L141.675 27.873Z" stroke="black" stroke-width="4" stroke-miterlimit="10"/>
<path d="M125.038 24.1851L184.782 -21.1435L226.123 34.0896L166.379 79.4182L125.038 24.1851Z" stroke="black" stroke-width="4" stroke-miterlimit="10"/>
<path d="M188.427 46.2609C199.988 37.4892 203.554 22.6196 196.39 13.0489C189.226 3.47817 174.047 2.83046 162.486 11.6022C150.924 20.374 147.359 35.2435 154.523 44.8142C161.686 54.3849 176.866 55.0326 188.427 46.2609Z" stroke="black" stroke-width="4" stroke-miterlimit="10"/>
<path d="M163.763 26.1787L167.924 23.2464L173.042 30.5771C173.915 31.7501 174.581 33.0068 175.08 34.3891C175.372 35.4364 175.288 36.5674 174.872 37.5728C174.331 38.8294 173.458 39.8767 172.293 40.6307C170.92 41.5942 169.755 42.1388 168.756 42.3063C167.799 42.4739 166.801 42.3063 165.885 41.8874C164.887 41.3847 164.013 40.6726 163.347 39.751L166.926 36.3998C167.217 36.8606 167.591 37.2795 168.007 37.6146C168.299 37.8241 168.631 37.9498 169.006 37.9498C169.297 37.9498 169.588 37.8241 169.796 37.6565C170.212 37.4052 170.504 36.9025 170.462 36.3998C170.337 35.6877 170.046 34.9756 169.588 34.431L163.763 26.1787ZM176.245 30.8285L180.032 27.8124C180.448 28.3151 180.988 28.6921 181.571 28.9015C182.403 29.1529 183.277 28.9853 183.984 28.4407C184.483 28.1056 184.899 27.6448 185.066 27.0584C185.316 26.3044 184.899 25.4666 184.151 25.2152C184.026 25.1733 183.901 25.1314 183.776 25.1314C183.277 25.0896 182.403 25.299 181.113 25.8436C178.991 26.7233 177.327 27.0584 176.079 26.9327C174.872 26.807 173.749 26.1787 173.083 25.1314C172.584 24.4193 172.334 23.5815 172.293 22.7437C172.293 21.7803 172.542 20.8168 173.083 20.0209C173.874 18.8898 174.831 17.9264 175.996 17.1724C177.743 15.9576 179.283 15.3711 180.614 15.3711C181.945 15.3711 183.194 15.9994 184.359 17.298L180.614 20.2722C179.865 19.3087 178.45 19.0993 177.494 19.8533L177.369 19.979C176.953 20.2303 176.661 20.6073 176.495 21.0681C176.37 21.4032 176.453 21.7803 176.661 22.0735C176.828 22.2829 177.077 22.4505 177.369 22.4505C177.702 22.4924 178.284 22.3248 179.116 21.9478C181.196 21.0681 182.778 20.5654 183.859 20.3979C184.775 20.2303 185.732 20.3141 186.605 20.6911C187.396 21.0262 188.062 21.6127 188.519 22.3248C189.102 23.1626 189.435 24.168 189.476 25.2152C189.518 26.3044 189.227 27.3516 188.644 28.2732C187.895 29.4042 186.938 30.3677 185.815 31.1217C183.526 32.7135 181.654 33.3838 180.156 33.1324C178.534 32.8811 177.202 32.0433 176.245 30.8285Z" fill="black"/>
</g>
<defs>
<clipPath id="clip0_122_29">
<rect width="230" height="86" fill="white" transform="translate(0.5 0.5)"/>
</clipPath>
</defs>
</svg>
